<mxfile host="Electron" modified="2023-07-21T14:20:23.607Z" agent="Mozilla/5.0 (X11; Linux x86_64) AppleWebKit/537.36 (KHTML, like Gecko) draw.io/21.6.1 Chrome/112.0.5615.204 Electron/24.6.1 Safari/537.36" etag="mP-cf9DlnPPgf0LcrvDa" version="21.6.1" type="device">
  <diagram name="Page-1" id="bEtYPRKD9bZJMX1dU_jv">
    <mxGraphModel dx="1648" dy="1042" grid="1" gridSize="10" guides="1" tooltips="1" connect="1" arrows="1" fold="1" page="1" pageScale="1" pageWidth="850" pageHeight="1100" math="0" shadow="0">
      <root>
        <mxCell id="0" />
        <mxCell id="1" parent="0" />
        <mxCell id="KEMW6SLpUEOluqxyM7wa-51" value="" style="group;" parent="1" vertex="1" connectable="0">
          <mxGeometry x="187.5" y="187" width="280" height="40" as="geometry" />
        </mxCell>
        <mxCell id="KEMW6SLpUEOluqxyM7wa-52" value="&lt;b&gt;&amp;nbsp; Legend&lt;/b&gt;" style="text;html=1;align=left;verticalAlign=middle;whiteSpace=wrap;rounded=1;fontFamily=Courier New;perimeterSpacing=6;shadow=0;fillColor=#f5f5f5;fontColor=#333333;strokeColor=#666666;" parent="KEMW6SLpUEOluqxyM7wa-51" vertex="1">
          <mxGeometry width="280" height="40" as="geometry" />
        </mxCell>
        <mxCell id="KEMW6SLpUEOluqxyM7wa-53" value="Keyword" style="rounded=1;whiteSpace=wrap;html=1;fillColor=#fad7ac;strokeColor=#b46504;arcSize=50;fontStyle=1;fontFamily=Courier New;perimeterSpacing=6;shadow=0;" parent="KEMW6SLpUEOluqxyM7wa-51" vertex="1">
          <mxGeometry x="90" y="5" width="70" height="30" as="geometry" />
        </mxCell>
        <mxCell id="KEMW6SLpUEOluqxyM7wa-55" value="&lt;span style=&quot;font-weight: normal;&quot;&gt;Variable&lt;/span&gt;" style="rounded=1;whiteSpace=wrap;html=1;fillColor=#e1d5e7;strokeColor=#9673a6;arcSize=50;fontStyle=1;fontFamily=Courier New;perimeterSpacing=6;shadow=0;" parent="KEMW6SLpUEOluqxyM7wa-51" vertex="1">
          <mxGeometry x="172" y="5" width="80" height="30" as="geometry" />
        </mxCell>
        <mxCell id="AmJ0kD8-tE1jQG9g42__-19" value="" style="group" vertex="1" connectable="0" parent="1">
          <mxGeometry x="30" y="101" width="595" height="75.53" as="geometry" />
        </mxCell>
        <mxCell id="MauK7lyqmDnbx4bMOs45-21" style="edgeStyle=orthogonalEdgeStyle;shape=connector;rounded=1;orthogonalLoop=1;jettySize=auto;html=1;exitX=0;exitY=0.5;exitDx=0;exitDy=0;labelBackgroundColor=default;strokeColor=#4F4F4F;strokeWidth=2;fontFamily=Helvetica;fontSize=12;fontColor=default;endArrow=none;endFill=0;fontStyle=0" parent="AmJ0kD8-tE1jQG9g42__-19" source="KEMW6SLpUEOluqxyM7wa-8" edge="1">
          <mxGeometry relative="1" as="geometry">
            <mxPoint y="32.80000000000001" as="targetPoint" />
          </mxGeometry>
        </mxCell>
        <mxCell id="KEMW6SLpUEOluqxyM7wa-8" value="&lt;p&gt;&lt;font face=&quot;Courier New&quot;&gt;locations:&lt;/font&gt;&lt;/p&gt;" style="rounded=1;whiteSpace=wrap;html=1;arcSize=50;fillColor=#fad7ac;strokeColor=#b46504;fontStyle=1" parent="AmJ0kD8-tE1jQG9g42__-19" vertex="1">
          <mxGeometry x="64.57000000000002" y="19.529999999999973" width="80" height="27.5" as="geometry" />
        </mxCell>
        <mxCell id="KEMW6SLpUEOluqxyM7wa-11" value="" style="edgeStyle=orthogonalEdgeStyle;shape=connector;rounded=1;orthogonalLoop=1;jettySize=auto;html=1;labelBackgroundColor=default;strokeColor=#4F4F4F;strokeWidth=2;fontFamily=Helvetica;fontSize=12;fontColor=default;endArrow=none;endFill=0;fontStyle=0" parent="AmJ0kD8-tE1jQG9g42__-19" edge="1">
          <mxGeometry relative="1" as="geometry">
            <mxPoint x="150" y="33" as="sourcePoint" />
            <mxPoint x="150" y="33" as="targetPoint" />
            <Array as="points">
              <mxPoint x="150" y="33" />
              <mxPoint x="150" y="33" />
            </Array>
          </mxGeometry>
        </mxCell>
        <mxCell id="KEMW6SLpUEOluqxyM7wa-38" value="" style="endArrow=doubleBlock;html=1;rounded=1;labelBackgroundColor=default;strokeColor=#4F4F4F;strokeWidth=2;fontFamily=Helvetica;fontSize=12;fontColor=default;shape=connector;endFill=1;fontStyle=0" parent="AmJ0kD8-tE1jQG9g42__-19" edge="1">
          <mxGeometry width="50" height="50" relative="1" as="geometry">
            <mxPoint x="7.105427357601002e-15" y="33" as="sourcePoint" />
            <mxPoint x="40" y="33" as="targetPoint" />
          </mxGeometry>
        </mxCell>
        <mxCell id="MauK7lyqmDnbx4bMOs45-5" value="" style="group;fontStyle=0" parent="AmJ0kD8-tE1jQG9g42__-19" vertex="1" connectable="0">
          <mxGeometry x="390" y="47.03" width="138" height="28.5" as="geometry" />
        </mxCell>
        <mxCell id="0CUz0YX_aPWi5cBz1GWe-1" value="&lt;p&gt;&lt;font face=&quot;Courier New&quot;&gt;ip:&lt;/font&gt;&lt;/p&gt;" style="rounded=1;whiteSpace=wrap;html=1;arcSize=50;fillColor=#fad7ac;strokeColor=#b46504;fontStyle=1" parent="MauK7lyqmDnbx4bMOs45-5" vertex="1">
          <mxGeometry width="52" height="27.5" as="geometry" />
        </mxCell>
        <mxCell id="0CUz0YX_aPWi5cBz1GWe-2" value="&lt;p&gt;&lt;font face=&quot;Courier New&quot;&gt;&lt;span style=&quot;font-weight: normal;&quot;&gt;address&lt;/span&gt;&lt;/font&gt;&lt;/p&gt;" style="rounded=1;whiteSpace=wrap;html=1;arcSize=50;fillColor=#e1d5e7;strokeColor=#9673a6;fontStyle=1" parent="MauK7lyqmDnbx4bMOs45-5" vertex="1">
          <mxGeometry x="59" y="1" width="75" height="27.5" as="geometry" />
        </mxCell>
        <mxCell id="0CUz0YX_aPWi5cBz1GWe-9" style="edgeStyle=orthogonalEdgeStyle;shape=connector;rounded=1;jumpStyle=none;orthogonalLoop=1;jettySize=auto;html=1;exitX=1;exitY=0.5;exitDx=0;exitDy=0;entryX=0;entryY=0.5;entryDx=0;entryDy=0;labelBackgroundColor=default;strokeColor=#4F4F4F;strokeWidth=2;fontFamily=Helvetica;fontSize=12;fontColor=default;startArrow=none;startFill=0;endArrow=none;endFill=0;elbow=vertical;fontStyle=0" parent="MauK7lyqmDnbx4bMOs45-5" source="0CUz0YX_aPWi5cBz1GWe-1" target="0CUz0YX_aPWi5cBz1GWe-2" edge="1">
          <mxGeometry relative="1" as="geometry" />
        </mxCell>
        <mxCell id="AmJ0kD8-tE1jQG9g42__-5" style="edgeStyle=orthogonalEdgeStyle;shape=connector;rounded=1;orthogonalLoop=1;jettySize=auto;html=1;exitX=1;exitY=0.5;exitDx=0;exitDy=0;entryX=0;entryY=0.5;entryDx=0;entryDy=0;labelBackgroundColor=default;strokeColor=#4F4F4F;strokeWidth=2;fontFamily=Helvetica;fontSize=12;fontColor=default;endArrow=none;endFill=0;fontStyle=0" edge="1" parent="AmJ0kD8-tE1jQG9g42__-19" source="KEMW6SLpUEOluqxyM7wa-14" target="0CUz0YX_aPWi5cBz1GWe-1">
          <mxGeometry relative="1" as="geometry" />
        </mxCell>
        <mxCell id="AmJ0kD8-tE1jQG9g42__-12" value="" style="endArrow=doubleBlock;html=1;rounded=1;labelBackgroundColor=default;strokeColor=#4F4F4F;strokeWidth=2;fontFamily=Helvetica;fontSize=12;fontColor=default;shape=connector;endFill=1;fontStyle=0" edge="1" parent="AmJ0kD8-tE1jQG9g42__-19">
          <mxGeometry width="50" height="50" relative="1" as="geometry">
            <mxPoint x="570" y="33" as="sourcePoint" />
            <mxPoint x="595" y="33" as="targetPoint" />
          </mxGeometry>
        </mxCell>
        <mxCell id="AmJ0kD8-tE1jQG9g42__-11" style="edgeStyle=orthogonalEdgeStyle;shape=connector;rounded=1;orthogonalLoop=1;jettySize=auto;html=1;exitX=1;exitY=0.5;exitDx=0;exitDy=0;labelBackgroundColor=default;strokeColor=#4F4F4F;strokeWidth=2;fontFamily=Helvetica;fontSize=12;fontColor=default;endArrow=none;endFill=0;fontStyle=0" edge="1" parent="AmJ0kD8-tE1jQG9g42__-19" source="KEMW6SLpUEOluqxyM7wa-14">
          <mxGeometry relative="1" as="geometry">
            <mxPoint x="580" y="33" as="targetPoint" />
          </mxGeometry>
        </mxCell>
        <mxCell id="AmJ0kD8-tE1jQG9g42__-18" style="edgeStyle=orthogonalEdgeStyle;shape=connector;rounded=1;orthogonalLoop=1;jettySize=auto;html=1;exitX=1;exitY=0.5;exitDx=0;exitDy=0;entryX=0;entryY=0.5;entryDx=0;entryDy=0;labelBackgroundColor=default;strokeColor=#4F4F4F;strokeWidth=2;fontFamily=Helvetica;fontSize=12;fontColor=default;endArrow=none;endFill=0;fontStyle=0" edge="1" parent="AmJ0kD8-tE1jQG9g42__-19" source="KEMW6SLpUEOluqxyM7wa-14" target="KEMW6SLpUEOluqxyM7wa-8">
          <mxGeometry relative="1" as="geometry">
            <Array as="points">
              <mxPoint x="570" y="33" />
              <mxPoint x="570" />
              <mxPoint x="45" />
              <mxPoint x="45" y="33" />
            </Array>
          </mxGeometry>
        </mxCell>
        <mxCell id="KEMW6SLpUEOluqxyM7wa-14" value="&lt;p&gt;&lt;font face=&quot;Courier New&quot;&gt;&lt;span style=&quot;font-weight: normal;&quot;&gt;location name&lt;/span&gt;&lt;/font&gt;&lt;/p&gt;" style="rounded=1;whiteSpace=wrap;html=1;arcSize=50;fillColor=#e1d5e7;strokeColor=#9673a6;fontStyle=1" parent="AmJ0kD8-tE1jQG9g42__-19" vertex="1">
          <mxGeometry x="233" y="19.529999999999973" width="120" height="27.5" as="geometry" />
        </mxCell>
        <mxCell id="AmJ0kD8-tE1jQG9g42__-16" style="edgeStyle=orthogonalEdgeStyle;shape=connector;rounded=1;orthogonalLoop=1;jettySize=auto;html=1;exitX=1;exitY=0.5;exitDx=0;exitDy=0;labelBackgroundColor=default;strokeColor=#4F4F4F;strokeWidth=2;fontFamily=Helvetica;fontSize=12;fontColor=default;endArrow=none;endFill=0;entryX=0;entryY=0.5;entryDx=0;entryDy=0;fontStyle=0" edge="1" parent="AmJ0kD8-tE1jQG9g42__-19" source="KEMW6SLpUEOluqxyM7wa-16" target="KEMW6SLpUEOluqxyM7wa-14">
          <mxGeometry relative="1" as="geometry">
            <mxPoint x="240" y="59" as="targetPoint" />
          </mxGeometry>
        </mxCell>
        <mxCell id="KEMW6SLpUEOluqxyM7wa-16" value="&lt;p&gt;&lt;font face=&quot;Courier New&quot;&gt;name:&lt;/font&gt;&lt;/p&gt;" style="rounded=1;whiteSpace=wrap;html=1;arcSize=50;fillColor=#fad7ac;strokeColor=#b46504;fontStyle=1" parent="AmJ0kD8-tE1jQG9g42__-19" vertex="1">
          <mxGeometry x="157" y="19.529999999999973" width="60" height="27.5" as="geometry" />
        </mxCell>
        <mxCell id="AmJ0kD8-tE1jQG9g42__-13" style="edgeStyle=orthogonalEdgeStyle;shape=connector;rounded=1;orthogonalLoop=1;jettySize=auto;html=1;exitX=1;exitY=0.5;exitDx=0;exitDy=0;entryX=0.039;entryY=0.496;entryDx=0;entryDy=0;entryPerimeter=0;labelBackgroundColor=default;strokeColor=#4F4F4F;strokeWidth=2;fontFamily=Helvetica;fontSize=12;fontColor=default;endArrow=none;endFill=0;fontStyle=0" edge="1" parent="AmJ0kD8-tE1jQG9g42__-19" source="KEMW6SLpUEOluqxyM7wa-8" target="KEMW6SLpUEOluqxyM7wa-16">
          <mxGeometry relative="1" as="geometry" />
        </mxCell>
        <mxCell id="AmJ0kD8-tE1jQG9g42__-17" style="edgeStyle=orthogonalEdgeStyle;shape=connector;rounded=1;orthogonalLoop=1;jettySize=auto;html=1;exitX=1;exitY=0.5;exitDx=0;exitDy=0;labelBackgroundColor=default;strokeColor=#4F4F4F;strokeWidth=2;fontFamily=Helvetica;fontSize=12;fontColor=default;endArrow=none;endFill=0;fontStyle=0" edge="1" parent="AmJ0kD8-tE1jQG9g42__-19" source="0CUz0YX_aPWi5cBz1GWe-2">
          <mxGeometry relative="1" as="geometry">
            <mxPoint x="570" y="33" as="targetPoint" />
            <Array as="points">
              <mxPoint x="540" y="62" />
              <mxPoint x="540" y="33" />
            </Array>
          </mxGeometry>
        </mxCell>
      </root>
    </mxGraphModel>
  </diagram>
</mxfile>
